<?xml version="1.0" encoding="UTF-8" ?>
<!DOCTYPE svg PUBLIC "-//W3C//DTD SVG 1.1//EN" "http://www.w3.org/Graphics/SVG/1.1/DTD/svg11.dtd">
<svg width="47pt" height="47pt" viewBox="0 0 47 47" version="1.1" xmlns="http://www.w3.org/2000/svg">
<g id="#002d77ff">
<path fill="#002d77" opacity="1.00" d=" M 8.28 2.33 C 11.77 1.34 15.31 0.17 19.00 0.41 C 25.35 0.59 31.91 -0.32 37.98 2.07 C 41.44 2.96 44.05 5.44 46.37 8.00 C 46.43 18.35 46.41 28.70 46.38 39.05 C 43.71 42.97 39.19 44.86 34.70 45.79 C 31.24 46.92 27.57 46.51 23.99 46.57 C 19.77 46.47 15.42 47.04 11.33 45.64 C 7.14 44.70 2.77 42.94 0.52 39.03 C 0.55 35.68 0.54 32.33 0.53 28.98 C 2.41 25.95 5.28 23.56 8.77 22.67 C 16.03 20.81 23.44 19.58 30.64 17.51 C 32.34 17.05 33.40 15.55 34.52 14.32 C 34.49 13.42 34.43 11.61 34.40 10.71 C 29.92 5.84 22.69 7.35 16.82 7.65 C 14.62 8.76 12.82 10.58 12.35 13.08 C 8.41 13.41 4.46 13.28 0.51 13.31 C 0.54 11.60 0.42 9.86 0.70 8.16 C 1.98 5.04 5.25 3.36 8.28 2.33 M 16.85 28.72 C 15.34 29.63 13.94 30.72 12.60 31.87 C 12.68 33.67 12.18 35.96 13.73 37.30 C 16.97 40.48 21.93 39.47 26.03 39.62 C 29.39 39.76 32.80 38.43 34.38 35.29 C 34.30 31.62 34.31 27.94 34.46 24.27 C 28.80 26.47 22.67 27.06 16.85 28.72 Z" />
</g>
</svg>
